<?xml version="1.0" encoding="UTF-8" standalone="no"?>
<!DOCTYPE svg PUBLIC "-//W3C//DTD SVG 1.1//EN" "http://www.w3.org/Graphics/SVG/1.1/DTD/svg11.dtd">
<svg width="100%" height="100%" viewBox="0 0 80 80" version="1.1" xmlns="http://www.w3.org/2000/svg" xmlns:xlink="http://www.w3.org/1999/xlink" xml:space="preserve" xmlns:serif="http://www.serif.com/" style="fill-rule:evenodd;clip-rule:evenodd;stroke-linejoin:round;stroke-miterlimit:2;">
    <g transform="matrix(1,0,0,1,-204.373,-289.674)">
        <g id="chevron" transform="matrix(1.02079,0,0,1.02076,193.333,278.636)">
            <rect x="10.815" y="10.814" width="78.371" height="78.373" style="fill:none;"/>
            <g transform="matrix(0.132733,3.25111e-17,-3.25103e-17,0.132736,30.2452,15.0398)">
                <path d="M24.707,38.101L4.908,57.899C0.222,62.585 0.222,70.183 4.908,74.87L185.607,256L4.908,437.13C0.222,441.816 0.222,449.414 4.908,454.101L24.707,473.9C29.393,478.586 36.991,478.586 41.678,473.9L251.092,264.486C255.778,259.8 255.778,252.202 251.092,247.515L41.678,38.101C36.991,33.414 29.393,33.414 24.707,38.101Z" style="fill-rule:nonzero;"/>
            </g>
        </g>
    </g>
</svg>
