<?xml version="1.0" encoding="UTF-8" standalone="no"?>
<!DOCTYPE svg PUBLIC "-//W3C//DTD SVG 1.1//EN" "http://www.w3.org/Graphics/SVG/1.1/DTD/svg11.dtd">
<svg width="100%" height="100%" viewBox="0 0 80 80" version="1.1" xmlns="http://www.w3.org/2000/svg" xmlns:xlink="http://www.w3.org/1999/xlink" xml:space="preserve" xmlns:serif="http://www.serif.com/" style="fill-rule:evenodd;clip-rule:evenodd;stroke-linejoin:round;stroke-miterlimit:2;">
    <g transform="matrix(1,0,0,1,-412.098,0)">
        <g id="close" transform="matrix(1.02079,0,0,1.02076,401.059,-11.0382)">
            <rect x="10.815" y="10.814" width="78.371" height="78.373" style="fill:none;"/>
            <g transform="matrix(1.04076,0,0,1.04076,-11.0376,1.02396)">
                <g>
                    <g transform="matrix(1.56349,1.56353,-0.692707,0.692723,-492.732,-550.746)">
                        <path d="M381,31.75C381,30.784 380.653,30 380.225,30L354.775,30C354.347,30 354,30.784 354,31.75L354,35.25C354,36.216 354.347,37 354.775,37L380.225,37C380.653,37 381,36.216 381,35.25L381,31.75Z"/>
                    </g>
                    <g transform="matrix(-1.56349,1.56353,0.692707,0.692723,610.026,-550.746)">
                        <path d="M381,31.75C381,30.784 380.653,30 380.225,30L354.775,30C354.347,30 354,30.784 354,31.75L354,35.25C354,36.216 354.347,37 354.775,37L380.225,37C380.653,37 381,36.216 381,35.25L381,31.75Z"/>
                    </g>
                </g>
            </g>
        </g>
    </g>
</svg>
