<?xml version="1.0" encoding="UTF-8" standalone="no"?>
<!DOCTYPE svg PUBLIC "-//W3C//DTD SVG 1.1//EN" "http://www.w3.org/Graphics/SVG/1.1/DTD/svg11.dtd">
<svg width="100%" height="100%" viewBox="0 0 80 80" version="1.1" xmlns="http://www.w3.org/2000/svg" xmlns:xlink="http://www.w3.org/1999/xlink" xml:space="preserve" xmlns:serif="http://www.serif.com/" style="fill-rule:evenodd;clip-rule:evenodd;stroke-linejoin:round;stroke-miterlimit:2;">
    <g transform="matrix(1,0,0,1,-647.976,-92.0725)">
        <g id="gallery" transform="matrix(1.02079,0,0,1.02076,636.937,81.0344)">
            <rect x="10.815" y="10.814" width="78.371" height="78.373" style="fill:none;"/>
            <g transform="matrix(1.14304,0,0,1.14306,-736.382,-102.538)">
                <path d="M680.918,148.661C682.135,148.661 683.124,149.649 683.124,150.866C683.124,152.084 682.135,153.072 680.918,153.072C679.701,153.072 678.712,152.084 678.712,150.866C678.712,149.649 679.701,148.661 680.918,148.661ZM702.092,148.661C703.31,148.661 704.298,149.649 704.298,150.866C704.298,152.084 703.31,153.072 702.092,153.072C700.875,153.072 699.887,152.084 699.887,150.866C699.887,149.649 700.875,148.661 702.092,148.661ZM673.86,148.661C675.077,148.661 676.065,149.649 676.065,150.866C676.065,152.084 675.077,153.072 673.86,153.072C672.642,153.072 671.654,152.084 671.654,150.866C671.654,149.649 672.642,148.661 673.86,148.661ZM687.976,148.661C689.193,148.661 690.182,149.649 690.182,150.866C690.182,152.084 689.193,153.072 687.976,153.072C686.759,153.072 685.77,152.084 685.77,150.866C685.77,149.649 686.759,148.661 687.976,148.661ZM695.034,148.661C696.252,148.661 697.24,149.649 697.24,150.866C697.24,152.084 696.252,153.072 695.034,153.072C693.817,153.072 692.829,152.084 692.829,150.866C692.829,149.649 693.817,148.661 695.034,148.661ZM709.171,113.822L666.781,113.822L666.781,143.819L709.171,143.819L709.171,113.822ZM664.75,117.334L658,117.334L658,141.332L664.75,141.332L664.75,117.334ZM717.952,117.334L711.202,117.334L711.202,141.332L717.952,141.332L717.952,117.334Z"/>
            </g>
        </g>
    </g>
</svg>
