<?xml version="1.0" encoding="UTF-8" standalone="no"?>
<!DOCTYPE svg PUBLIC "-//W3C//DTD SVG 1.1//EN" "http://www.w3.org/Graphics/SVG/1.1/DTD/svg11.dtd">
<svg width="100%" height="100%" viewBox="0 0 80 80" version="1.1" xmlns="http://www.w3.org/2000/svg" xmlns:xlink="http://www.w3.org/1999/xlink" xml:space="preserve" xmlns:serif="http://www.serif.com/" style="fill-rule:evenodd;clip-rule:evenodd;stroke-linejoin:round;stroke-miterlimit:2;">
    <g transform="matrix(1,0,0,1,-457.878,-92.0725)">
        <g id="grid" transform="matrix(1.02079,0,0,1.02076,446.838,81.0344)">
            <rect x="10.815" y="10.814" width="78.371" height="78.373" style="fill:none;"/>
            <g transform="matrix(0.979636,0,0,0.979659,-437.739,-79.386)">
                <path d="M484.893,145.025L468.002,145.025L468.002,162.025L484.893,162.025L484.893,145.025ZM506.323,145.025L489.432,145.025L489.432,162.025L506.323,162.025L506.323,145.025ZM527.753,145.025L510.862,145.025L510.862,162.025L527.753,162.025L527.753,145.025ZM484.893,123.512L468.002,123.512L468.002,140.512L484.893,140.512L484.893,123.512ZM506.323,123.512L489.432,123.512L489.432,140.512L506.323,140.512L506.323,123.512ZM527.753,123.512L510.862,123.512L510.862,140.512L527.753,140.512L527.753,123.512ZM484.893,102L468.002,102L468.002,119L484.893,119L484.893,102ZM506.323,102L489.432,102L489.432,119L506.323,119L506.323,102ZM527.753,102L510.862,102L510.862,119L527.753,119L527.753,102Z"/>
            </g>
        </g>
    </g>
</svg>
