<svg width="100%" height="100%" viewBox="0 0 80 80"
    style="fill-rule:evenodd;clip-rule:evenodd;stroke-linejoin:round;stroke-miterlimit:2;">
    <g transform="matrix(1,0,0,1,-102,-92.0725)">
        <g id="Hamburger" transform="matrix(1.02079,0,0,1.02076,90.9606,81.0344)">
            <g transform="matrix(0.979636,0,0,0.979659,-89.1083,-80.3657)">
                <path
                    d="M167.099,150.073L116.901,150.073C113.372,150.073 110.507,153.01 110.507,156.539C110.507,160.067 113.372,163.073 116.901,163.073L167.099,163.073C170.628,163.073 173.493,160.067 173.493,156.539C173.493,153.01 170.628,150.073 167.099,150.073ZM167.099,126.536L116.901,126.536C113.372,126.536 110.507,129.474 110.507,133.002C110.507,136.531 113.372,139.536 116.901,139.536L167.099,139.536C170.628,139.536 173.493,136.531 173.493,133.002C173.493,129.474 170.628,126.536 167.099,126.536ZM167.099,103L116.901,103C113.372,103 110.507,105.937 110.507,109.466C110.507,112.995 113.372,116 116.901,116L167.099,116C170.628,116 173.493,112.995 173.493,109.466C173.493,105.937 170.628,103 167.099,103Z" />
            </g>
        </g>
    </g>
</svg>