<svg width="100%" height="100%" viewBox="0 0 80 80"
    style="fill-rule:evenodd;clip-rule:evenodd;stroke-linejoin:round;stroke-miterlimit:2;">
    <g transform="matrix(1,0,0,1,-301,-92.0725)">
        <g id="heart" transform="matrix(1.02079,0,0,1.02076,289.961,81.0344)">
            <g transform="matrix(0.68995,0,0,0.689966,15.5024,15.5017)">
                <path
                    d="M50.016,89.363L14.839,54.059C4.925,44.147 4.925,28.006 14.844,18.088C19.648,13.283 26.035,10.637 32.83,10.637C39.246,10.637 45.3,12.996 50.001,17.305C54.7,12.996 60.754,10.637 67.17,10.637C73.965,10.637 80.353,13.283 85.156,18.088C95.076,28.006 95.076,44.147 85.156,54.065L50.016,89.363Z"
                    style="fill-rule:nonzero;" />
            </g>
        </g>
    </g>
</svg>