<?xml version="1.0" encoding="UTF-8" standalone="no"?>
<!DOCTYPE svg PUBLIC "-//W3C//DTD SVG 1.1//EN" "http://www.w3.org/Graphics/SVG/1.1/DTD/svg11.dtd">
<svg width="100%" height="100%" viewBox="0 0 68 57" version="1.1" xmlns="http://www.w3.org/2000/svg" xmlns:xlink="http://www.w3.org/1999/xlink" xml:space="preserve" xmlns:serif="http://www.serif.com/" style="fill-rule:evenodd;clip-rule:evenodd;stroke-linejoin:round;stroke-miterlimit:2;">
    <g transform="matrix(1,0,0,1,-6.24173,-11.9707)">
        <g transform="matrix(1.02079,0,0,1.02076,-11.0394,-11.0382)">
            <g transform="matrix(0.979636,0,0,0.979659,10.8146,10.8137)">
                <path d="M69.242,58.996L10.758,58.996C8.266,58.996 6.242,61.02 6.242,63.513C6.242,66.006 8.266,68.029 10.758,68.029L69.242,68.029C71.734,68.029 73.758,66.006 73.758,63.513C73.758,61.02 71.734,58.996 69.242,58.996ZM69.242,43.321L10.758,43.321C8.266,43.321 6.242,45.345 6.242,47.838C6.242,50.33 8.266,52.354 10.758,52.354L69.242,52.354C71.734,52.354 73.758,50.33 73.758,47.838C73.758,45.345 71.734,43.321 69.242,43.321ZM69.242,27.646L10.758,27.646C8.266,27.646 6.242,29.67 6.242,32.162C6.242,34.655 8.266,36.679 10.758,36.679L69.242,36.679C71.734,36.679 73.758,34.655 73.758,32.162C73.758,29.67 71.734,27.646 69.242,27.646ZM69.242,11.971L10.758,11.971C8.266,11.971 6.242,13.994 6.242,16.487C6.242,18.98 8.266,21.004 10.758,21.004L69.242,21.004C71.734,21.004 73.758,18.98 73.758,16.487C73.758,13.994 71.734,11.971 69.242,11.971Z"/>
            </g>
        </g>
    </g>
</svg>
