<?xml version="1.0" encoding="UTF-8" standalone="no"?>
<!DOCTYPE svg PUBLIC "-//W3C//DTD SVG 1.1//EN" "http://www.w3.org/Graphics/SVG/1.1/DTD/svg11.dtd">
<svg width="100%" height="100%" viewBox="0 0 80 80" version="1.1" xmlns="http://www.w3.org/2000/svg" xmlns:xlink="http://www.w3.org/1999/xlink" xml:space="preserve" xmlns:serif="http://www.serif.com/" style="fill-rule:evenodd;clip-rule:evenodd;stroke-linejoin:round;stroke-miterlimit:2;">
    <g transform="matrix(1,0,0,1,0,-289.674)">
        <g id="messenger" transform="matrix(1.02079,0,0,1.02076,-11.0394,278.636)">
            <rect x="10.815" y="10.814" width="78.371" height="78.373" style="fill:none;"/>
            <g transform="matrix(2.44899,0,0,2.44905,15.7153,15.6122)">
                <path d="M14,2.042C20.76,2.042 26,6.994 26,13.682C26,20.37 20.76,25.322 14,25.322C12.827,25.325 11.658,25.17 10.526,24.861C10.313,24.802 10.087,24.819 9.885,24.908L7.5,25.959C7.378,26.013 7.246,26.041 7.113,26.041C6.597,26.041 6.168,25.625 6.152,25.11L6.087,22.976C6.078,22.714 5.962,22.466 5.765,22.292C3.331,20.099 1.957,16.958 2,13.682C2,6.994 7.24,2.042 14,2.042ZM6.794,17.086C6.737,17.177 6.706,17.283 6.706,17.39C6.706,17.703 6.963,17.96 7.276,17.96C7.401,17.96 7.522,17.919 7.621,17.844L11.407,14.97C11.663,14.777 12.019,14.777 12.275,14.97L15.075,17.07C15.386,17.303 15.764,17.428 16.153,17.428C16.77,17.428 17.346,17.111 17.675,16.589L21.2,10.997C21.257,10.906 21.288,10.8 21.288,10.693C21.288,10.38 21.031,10.123 20.718,10.123C20.593,10.123 20.472,10.164 20.373,10.239L16.587,13.113C16.331,13.306 15.975,13.306 15.719,13.113L12.919,11.013C12.608,10.78 12.23,10.655 11.841,10.655C11.224,10.655 10.648,10.972 10.319,11.494L6.794,17.086Z" style="fill-rule:nonzero;"/>
            </g>
        </g>
    </g>
</svg>
