<?xml version="1.0" encoding="UTF-8" standalone="no"?>
<!DOCTYPE svg PUBLIC "-//W3C//DTD SVG 1.1//EN" "http://www.w3.org/Graphics/SVG/1.1/DTD/svg11.dtd">
<svg width="100%" height="100%" viewBox="0 0 80 80" version="1.1" xmlns="http://www.w3.org/2000/svg" xmlns:xlink="http://www.w3.org/1999/xlink" xml:space="preserve" xmlns:serif="http://www.serif.com/" style="fill-rule:evenodd;clip-rule:evenodd;stroke-linejoin:round;stroke-miterlimit:2;">
    <g transform="matrix(1,0,0,1,-104.537,-184.882)">
        <g id="sun" transform="matrix(1.02079,0,0,1.02076,93.4978,173.844)">
            <rect x="10.815" y="10.814" width="78.371" height="78.373" style="fill:none;"/>
            <g transform="matrix(0.750008,0,0,0.750004,12.4997,12.4996)">
                <path d="M52.703,86.484L52.703,79.185C52.703,77.693 51.492,76.482 50,76.482C48.508,76.482 47.297,77.693 47.297,79.185L47.297,86.484C47.297,87.975 48.508,89.186 50,89.186C51.492,89.186 52.703,87.975 52.703,86.484ZM77.709,73.887L72.548,68.727C71.493,67.672 69.78,67.672 68.726,68.727C67.671,69.782 67.671,71.494 68.726,72.549L73.887,77.709C74.942,78.764 76.654,78.763 77.709,77.709C78.764,76.654 78.763,74.941 77.709,73.887ZM26.113,77.709L31.274,72.549C32.329,71.494 32.329,69.782 31.274,68.727C30.22,67.672 28.507,67.672 27.452,68.727L22.291,73.887C21.237,74.941 21.236,76.654 22.291,77.709C23.346,78.763 25.058,78.764 26.113,77.709ZM50,30.799C60.597,30.799 69.2,39.402 69.2,49.999C69.2,60.596 60.597,69.199 50,69.199C39.403,69.199 30.8,60.596 30.8,49.999C30.8,39.402 39.403,30.799 50,30.799ZM50,35.549C57.975,35.549 64.45,42.024 64.45,49.999C64.45,57.974 57.975,64.449 50,64.449C42.025,64.449 35.55,57.974 35.55,49.999C35.55,45.681 37.449,41.802 40.456,39.153C43.002,36.91 46.344,35.549 50,35.549ZM86.483,47.298L79.186,47.298C77.694,47.298 76.483,48.509 76.483,50.001C76.483,51.492 77.694,52.703 79.186,52.703L86.483,52.703C87.974,52.703 89.185,51.492 89.185,50.001C89.185,48.509 87.974,47.298 86.483,47.298ZM13.517,52.702L20.814,52.703C22.305,52.703 23.516,51.492 23.517,50C23.517,48.509 22.306,47.298 20.814,47.297L13.517,47.297C12.026,47.296 10.815,48.507 10.815,49.999C10.814,51.49 12.025,52.701 13.517,52.702ZM73.887,22.291L68.726,27.452C67.671,28.507 67.671,30.219 68.726,31.274C69.781,32.329 71.493,32.329 72.548,31.274L77.709,26.113C78.764,25.058 78.764,23.346 77.709,22.291C76.654,21.236 74.942,21.236 73.887,22.291ZM22.291,26.113L27.449,31.274C28.503,32.329 30.216,32.329 31.271,31.275C32.326,30.22 32.326,28.508 31.272,27.453L26.114,22.292C25.059,21.237 23.347,21.236 22.292,22.291C21.237,23.345 21.236,25.058 22.291,26.113ZM47.297,13.516L47.297,20.813C47.297,22.305 48.508,23.516 50,23.516C51.492,23.516 52.703,22.305 52.703,20.813L52.703,13.516C52.703,12.025 51.492,10.814 50,10.814C48.508,10.814 47.297,12.025 47.297,13.516Z"/>
            </g>
        </g>
    </g>
</svg>
